<?xml version="1.0" encoding="UTF-8" standalone="no"?>
<!-- Created with Inkscape (http://www.inkscape.org/) -->

<svg
   width="512"
   height="512"
   viewBox="0 0 135.46667 135.46667"
   version="1.1"
   id="svg1"
   inkscape:version="1.4 (e7c3feb100, 2024-10-09)"
   sodipodi:docname="icon.svg"
   xml:space="preserve"
   inkscape:export-filename="icon.png"
   inkscape:export-xdpi="96"
   inkscape:export-ydpi="96"
   xmlns:inkscape="http://www.inkscape.org/namespaces/inkscape"
   xmlns:sodipodi="http://sodipodi.sourceforge.net/DTD/sodipodi-0.dtd"
   xmlns="http://www.w3.org/2000/svg"
   xmlns:svg="http://www.w3.org/2000/svg"><sodipodi:namedview
     id="namedview1"
     pagecolor="#3c2556"
     bordercolor="#666666"
     borderopacity="1.0"
     inkscape:showpageshadow="2"
     inkscape:pageopacity="0.0"
     inkscape:pagecheckerboard="0"
     inkscape:deskcolor="#d1d1d1"
     inkscape:document-units="px"
     inkscape:export-bgcolor="#3c255600"
     inkscape:zoom="1.0078851"
     inkscape:cx="113.60422"
     inkscape:cy="320.47304"
     inkscape:window-width="1920"
     inkscape:window-height="1008"
     inkscape:window-x="0"
     inkscape:window-y="0"
     inkscape:window-maximized="1"
     inkscape:current-layer="layer1"
     showgrid="false" /><defs
     id="defs1"><linearGradient
       id="swatch3"
       inkscape:swatch="solid"><stop
         style="stop-color:#000000;stop-opacity:1;"
         offset="0"
         id="stop3" /></linearGradient></defs><g
     inkscape:label="Layer 1"
     inkscape:groupmode="layer"
     id="layer1"><rect
       style="display:none;fill:#3c2556;fill-opacity:1;stroke:none;stroke-width:5.64444;stroke-linecap:round;stroke-linejoin:round"
       id="rect3"
       width="135.46666"
       height="135.46666"
       x="0"
       y="0"
       inkscape:label="background" /><g
       style="fill:#ffffff;fill-opacity:1"
       id="g3"
       transform="matrix(4.9731004,0,0,4.9731004,27.948532,38.436912)"
       inkscape:label="infinity"><path
         d="M 5.68,5.792 7.345,7.75 5.681,9.708 a 2.75,2.75 0 1 1 0,-3.916 z M 8,6.978 6.416,5.113 6.402,5.098 a 3.75,3.75 0 1 0 0,5.304 L 6.416,10.387 8,8.522 l 1.584,1.865 0.014,0.015 a 3.75,3.75 0 1 0 0,-5.304 L 9.584,5.113 Z M 8.656,7.75 10.319,5.792 a 2.75,2.75 0 1 1 0,3.916 z"
         id="path1"
         style="fill:#ffffff;fill-opacity:1" /></g><g
       style="display:inline;fill:#ffffff;fill-opacity:1"
       id="g4"
       transform="matrix(4.6715271,0,0,4.6715271,30.363845,1.0760153)"
       inkscape:label="wifi"><path
         d="M 15.384,6.115 A 0.485,0.485 0 0 0 15.337,5.379 12.44,12.44 0 0 0 8,3 C 5.259,3 2.723,3.882 0.663,5.379 A 0.485,0.485 0 0 0 0.615,6.115 0.52,0.52 0 0 0 1.283,6.165 11.45,11.45 0 0 1 8,4 c 2.507,0 4.827,0.802 6.716,2.164 0.205,0.148 0.49,0.13 0.668,-0.049"
         id="path1-5"
         style="display:none;fill:#ffffff;fill-opacity:1" /><path
         d="M 13.229,8.271 C 13.448888,8.0588345 13.418394,7.6982276 13.166,7.526 11.628267,6.5274553 9.8334955,5.9972923 8,6 6.095,6 4.32,6.56 2.834,7.526 2.5801039,7.6973484 2.5494833,8.0594489 2.771,8.271 2.946484,8.4422731 3.2171564,8.4692573 3.423,8.336 4.7890239,7.4610575 6.3777983,6.9973033 8,7 c 1.6218617,-0.0025 3.210262,0.4612415 4.576,1.336 0.206,0.132 0.48,0.108 0.653,-0.065 m -2.183,2.183 c 0.226,-0.226 0.185,-0.605 -0.1,-0.75 C 10.033141,9.240613 9.0237373,8.9993977 8,9 6.94,9 5.938,9.254 5.054,9.704 c -0.285,0.145 -0.326,0.524 -0.1,0.75 l 0.015,0.015 c 0.16,0.16 0.407,0.19 0.611,0.09 C 6.3334913,10.190582 7.1612624,9.9993735 8,10 c 0.868,0 1.69,0.201 2.42,0.56 0.203,0.1 0.45,0.07 0.61,-0.091 z"
         id="path2"
         style="display:inline;fill:#ffffff;fill-opacity:1"
         sodipodi:nodetypes="cccccccccccccssccccc" /><path
         d="m 72.685154,57.555073 c 0.915619,-0.915619 0.924962,-2.429194 -0.186861,-3.083208 -1.442154,-0.855725 -3.088035,-1.307532 -4.764958,-1.308027 -1.676922,4.95e-4 -3.322804,0.452297 -4.764957,1.308027 -1.111824,0.654014 -1.102481,2.167589 -0.186862,3.083208 l 3.298099,3.298098 c 0.912115,0.91184 2.390654,0.91184 3.302769,0 l 3.30277,-3.302769 z"
         style="display:none;fill:#ffffff;fill-opacity:1;stroke-width:4.67153"
         id="path1-53"
         transform="matrix(0.21406277,0,0,0.21406277,-6.4997686,-0.23033481)" /></g><circle
       style="display:none;fill:none;fill-opacity:1;stroke:#fe0000;stroke-width:0.352317;stroke-linecap:round;stroke-linejoin:round;stroke-dasharray:none;stroke-opacity:1"
       id="path3"
       cx="67.73333"
       cy="67.73333"
       r="45.09655"
       inkscape:label="guide-circle" /><g
       style="fill:currentColor"
       id="g5"
       transform="matrix(0.26458333,0,0,0.26458333,55.298073,19.672712)"
       inkscape:label="wifi-2" /></g></svg>
