<?xml version="1.0" encoding="UTF-8" standalone="no"?>
<!-- Created with Inkscape (http://www.inkscape.org/) -->

<svg
   width="512"
   height="512"
   viewBox="0 0 135.46667 135.46667"
   version="1.1"
   id="svg1"
   inkscape:version="1.4 (e7c3feb100, 2024-10-09)"
   sodipodi:docname="icon.svg"
   xml:space="preserve"
   inkscape:export-filename="icon.png"
   inkscape:export-xdpi="96"
   inkscape:export-ydpi="96"
   xmlns:inkscape="http://www.inkscape.org/namespaces/inkscape"
   xmlns:sodipodi="http://sodipodi.sourceforge.net/DTD/sodipodi-0.dtd"
   xmlns="http://www.w3.org/2000/svg"
   xmlns:svg="http://www.w3.org/2000/svg"><sodipodi:namedview
     id="namedview1"
     pagecolor="#ffffff"
     bordercolor="#666666"
     borderopacity="1.0"
     inkscape:showpageshadow="2"
     inkscape:pageopacity="0.0"
     inkscape:pagecheckerboard="0"
     inkscape:deskcolor="#d1d1d1"
     inkscape:document-units="px"
     inkscape:export-bgcolor="#3c2556ff"
     inkscape:zoom="2.0157702"
     inkscape:cx="252.2609"
     inkscape:cy="278.30554"
     inkscape:window-width="1920"
     inkscape:window-height="1008"
     inkscape:window-x="0"
     inkscape:window-y="0"
     inkscape:window-maximized="1"
     inkscape:current-layer="layer1" /><defs
     id="defs1"><linearGradient
       id="swatch3"
       inkscape:swatch="solid"><stop
         style="stop-color:#000000;stop-opacity:1;"
         offset="0"
         id="stop3" /></linearGradient></defs><g
     inkscape:label="Layer 1"
     inkscape:groupmode="layer"
     id="layer1"><rect
       style="fill:#3c2556;stroke:none;stroke-width:5.64444;stroke-linecap:round;stroke-linejoin:round;fill-opacity:1"
       id="rect3"
       width="135.46666"
       height="135.46666"
       x="0"
       y="0" /><g
       style="fill:#ffffff;fill-opacity:1"
       id="g3"
       transform="matrix(4.9731004,0,0,4.9731004,27.948528,38.436912)"
       inkscape:label="infinity"><path
         d="M 5.68,5.792 7.345,7.75 5.681,9.708 a 2.75,2.75 0 1 1 0,-3.916 z M 8,6.978 6.416,5.113 6.402,5.098 a 3.75,3.75 0 1 0 0,5.304 L 6.416,10.387 8,8.522 l 1.584,1.865 0.014,0.015 a 3.75,3.75 0 1 0 0,-5.304 L 9.584,5.113 Z M 8.656,7.75 10.319,5.792 a 2.75,2.75 0 1 1 0,3.916 z"
         id="path1"
         style="fill:#ffffff;fill-opacity:1" /></g><g
       style="display:inline;fill:#ffffff;fill-opacity:1"
       id="g4"
       transform="matrix(4.6715271,0,0,4.6715271,30.362438,1.0760153)"
       inkscape:label="wifi"><path
         d="M 15.384,6.115 A 0.485,0.485 0 0 0 15.337,5.379 12.44,12.44 0 0 0 8,3 C 5.259,3 2.723,3.882 0.663,5.379 A 0.485,0.485 0 0 0 0.615,6.115 0.52,0.52 0 0 0 1.283,6.165 11.45,11.45 0 0 1 8,4 c 2.507,0 4.827,0.802 6.716,2.164 0.205,0.148 0.49,0.13 0.668,-0.049"
         id="path1-5"
         style="display:none;fill:#ffffff;fill-opacity:1" /><path
         d="m 9.0597175,12.043538 c 0.1959999,-0.196 0.1979999,-0.52 -0.04,-0.66 -0.3087113,-0.183179 -0.6610333,-0.279894 -1.0199999,-0.28 -0.3589668,1.06e-4 -0.7112886,0.09682 -1.0200001,0.28 -0.2379999,0.14 -0.2359999,0.464 -0.04,0.66 l 0.706,0.706 c 0.1952499,0.195191 0.5117502,0.195191 0.7070001,0 l 0.7070001,-0.707 z"
         style="display:none;fill:#ffffff;fill-opacity:1;stroke-width:1"
         id="path1-6" /><path
         d="M 13.229301,8.271 C 13.449189,8.0588345 13.418695,7.6982276 13.166301,7.526 11.628568,6.5274553 9.8337967,5.9972923 8.0003012,6 c -1.905,0 -3.68,0.56 -5.166,1.526 -0.2538961,0.1713484 -0.2845167,0.5334489 -0.063,0.745 0.175484,0.1712731 0.4461564,0.1982573 0.652,0.065 1.3660239,-0.8749425 2.9547983,-1.3386967 4.577,-1.336 1.6218617,-0.0025 3.2102618,0.4612415 4.5759998,1.336 0.206,0.132 0.48,0.108 0.653,-0.065 m -2.183,2.183 c 0.226,-0.226 0.185,-0.605 -0.1,-0.75 C 10.033442,9.240613 9.0240385,8.9993977 8.0003012,9 c -1.06,0 -2.062,0.254 -2.946,0.704 -0.285,0.145 -0.326,0.524 -0.1,0.75 l 0.015,0.015 c 0.16,0.16 0.407,0.19 0.611,0.09 0.7534913,-0.368418 1.5812624,-0.5596265 2.42,-0.559 0.868,0 1.69,0.201 2.4199998,0.56 0.203,0.1 0.45,0.07 0.61,-0.091 z"
         id="path2"
         style="display:inline;fill:#ffffff;fill-opacity:1"
         sodipodi:nodetypes="cccccccccccccssccccc" /></g><circle
       style="display:none;fill:none;fill-opacity:1;stroke:#fe0000;stroke-width:0.352317;stroke-linecap:round;stroke-linejoin:round;stroke-dasharray:none;stroke-opacity:1"
       id="path3"
       cx="67.73333"
       cy="67.73333"
       r="45.09655"
       inkscape:label="guide-circle" /><g
       style="fill:currentColor"
       id="g5"
       transform="matrix(0.26458333,0,0,0.26458333,55.298073,19.672712)"
       inkscape:label="wifi-2" /></g></svg>
