<?xml version="1.0" encoding="UTF-8" standalone="no"?>
<!-- Created with Inkscape (http://www.inkscape.org/) -->

<svg
   width="512"
   height="512"
   viewBox="0 0 135.46667 135.46667"
   version="1.1"
   id="svg1"
   inkscape:version="1.4 (e7c3feb100, 2024-10-09)"
   sodipodi:docname="icon.svg"
   xml:space="preserve"
   xmlns:inkscape="http://www.inkscape.org/namespaces/inkscape"
   xmlns:sodipodi="http://sodipodi.sourceforge.net/DTD/sodipodi-0.dtd"
   xmlns="http://www.w3.org/2000/svg"
   xmlns:svg="http://www.w3.org/2000/svg"><sodipodi:namedview
     id="namedview1"
     pagecolor="#ffffff"
     bordercolor="#666666"
     borderopacity="1.0"
     inkscape:showpageshadow="2"
     inkscape:pageopacity="0.0"
     inkscape:pagecheckerboard="0"
     inkscape:deskcolor="#d1d1d1"
     inkscape:document-units="px"
     inkscape:export-bgcolor="#3c2556ff"
     inkscape:zoom="0.71268238"
     inkscape:cx="-53.319685"
     inkscape:cy="291.85512"
     inkscape:window-width="1920"
     inkscape:window-height="1008"
     inkscape:window-x="0"
     inkscape:window-y="0"
     inkscape:window-maximized="1"
     inkscape:current-layer="layer1" /><defs
     id="defs1"><linearGradient
       id="swatch3"
       inkscape:swatch="solid"><stop
         style="stop-color:#000000;stop-opacity:1;"
         offset="0"
         id="stop3" /></linearGradient></defs><g
     inkscape:label="Layer 1"
     inkscape:groupmode="layer"
     id="layer1"><rect
       style="fill:#3c2556;stroke:none;stroke-width:5.64444;stroke-linecap:round;stroke-linejoin:round;fill-opacity:1"
       id="rect3"
       width="135.46666"
       height="135.46666"
       x="0"
       y="0" /><g
       style="fill:#ffffff;fill-opacity:1"
       id="g3"
       transform="matrix(6.4253534,0,0,6.4253534,16.330507,20.160922)"
       inkscape:label="infinity"><path
         d="M 5.68,5.792 7.345,7.75 5.681,9.708 a 2.75,2.75 0 1 1 0,-3.916 z M 8,6.978 6.416,5.113 6.402,5.098 a 3.75,3.75 0 1 0 0,5.304 L 6.416,10.387 8,8.522 l 1.584,1.865 0.014,0.015 a 3.75,3.75 0 1 0 0,-5.304 L 9.584,5.113 Z M 8.656,7.75 10.319,5.792 a 2.75,2.75 0 1 1 0,3.916 z"
         id="path1"
         style="fill:#ffffff;fill-opacity:1" /></g><circle
       style="display:none;fill:none;fill-opacity:1;stroke:#fe0000;stroke-width:0.529167;stroke-linecap:round;stroke-linejoin:round;stroke-dasharray:none;stroke-opacity:1"
       id="path3"
       cx="67.73333"
       cy="67.73333"
       r="67.73333"
       inkscape:label="guide-circle" /><g
       style="display:inline;fill:#ffffff;fill-opacity:1"
       id="g4"
       transform="matrix(6.0357141,0,0,6.0357141,18.5212,-28.110165)"
       inkscape:label="wifi"><path
         d="M 15.384,6.115 A 0.485,0.485 0 0 0 15.337,5.379 12.44,12.44 0 0 0 8,3 C 5.259,3 2.723,3.882 0.663,5.379 A 0.485,0.485 0 0 0 0.615,6.115 0.52,0.52 0 0 0 1.283,6.165 11.45,11.45 0 0 1 8,4 c 2.507,0 4.827,0.802 6.716,2.164 0.205,0.148 0.49,0.13 0.668,-0.049"
         id="path1-5"
         style="display:none;fill:#ffffff;fill-opacity:1" /><path
         d="M 13.229,8.271 A 0.482,0.482 0 0 0 13.166,7.526 9.46,9.46 0 0 0 8,6 C 6.095,6 4.32,6.56 2.834,7.526 A 0.48,0.48 0 0 0 2.771,8.271 0.525,0.525 0 0 0 3.423,8.336 8.46,8.46 0 0 1 8,7 8.46,8.46 0 0 1 12.576,8.336 c 0.206,0.132 0.48,0.108 0.653,-0.065 m -2.183,2.183 c 0.226,-0.226 0.185,-0.605 -0.1,-0.75 A 6.5,6.5 0 0 0 8,9 C 6.94,9 5.938,9.254 5.054,9.704 c -0.285,0.145 -0.326,0.524 -0.1,0.75 l 0.015,0.015 c 0.16,0.16 0.407,0.19 0.611,0.09 A 5.5,5.5 0 0 1 8,10 c 0.868,0 1.69,0.201 2.42,0.56 0.203,0.1 0.45,0.07 0.61,-0.091 z M 9.06,12.44 C 9.256,12.244 9.258,11.92 9.02,11.78 A 2,2 0 0 0 8,11.5 2,2 0 0 0 6.98,11.78 c -0.238,0.14 -0.236,0.464 -0.04,0.66 l 0.706,0.706 a 0.5,0.5 0 0 0 0.707,0 L 9.06,12.439 Z"
         id="path2"
         style="fill:#ffffff;fill-opacity:1" /></g><g
       style="fill:currentColor"
       id="g5"
       transform="matrix(0.26458333,0,0,0.26458333,55.298073,19.672712)"
       inkscape:label="wifi-2" /></g></svg>
